<svg id="svg" version="1.1" width="1024" height="261" viewBox="0 0 1024 261" xmlns="http://www.w3.org/2000/svg"><path d="M0.000 130.500 L 0.000 261.000 512.000 261.000 L 1024.000 261.000 1024.000 130.500 L 1024.000 0.000 512.000 0.000 L 0.000 0.000 0.000 130.500 M368.049 40.250 C 370.202 42.038,371.972 44.207,371.982 45.071 C 372.009 47.436,338.922 83.000,336.694 83.000 C 336.134 83.000,330.746 78.125,324.722 72.167 L 313.768 61.334 317.021 57.629 C 322.687 51.176,323.281 51.172,329.970 57.553 C 333.228 60.660,336.304 63.044,336.807 62.851 C 337.310 62.658,343.062 56.763,349.589 49.750 C 356.116 42.737,362.059 37.000,362.795 37.000 C 363.532 37.000,365.896 38.462,368.049 40.250 M202.500 51.532 C 215.700 51.848,233.475 52.540,242.000 53.071 C 257.847 54.057,302.295 57.975,302.755 58.426 C 302.894 58.563,302.526 60.061,301.936 61.755 C 301.094 64.168,301.192 65.471,302.388 67.783 L 303.913 70.733 297.707 71.351 C 294.293 71.692,274.850 71.976,254.500 71.983 C 212.523 71.997,168.174 73.611,166.267 75.194 C 165.272 76.019,165.000 88.376,165.000 132.794 C 165.000 184.010,165.156 189.515,166.655 191.171 C 168.152 192.826,170.199 193.000,188.155 193.000 L 208.000 193.000 208.000 173.200 C 208.000 159.133,208.347 153.053,209.200 152.200 C 209.961 151.439,213.792 151.000,219.665 151.000 C 227.919 151.000,229.047 151.219,230.005 153.008 C 230.665 154.242,231.048 161.860,230.998 172.758 C 230.953 182.516,230.936 191.063,230.958 191.750 C 230.982 192.463,232.289 193.000,234.000 193.000 L 237.000 193.000 237.000 165.622 C 237.000 143.383,237.263 138.027,238.399 137.084 C 239.302 136.334,243.114 136.025,249.149 136.211 L 258.500 136.500 258.766 164.809 L 259.031 193.119 262.766 192.809 L 266.500 192.500 266.605 154.728 C 266.663 133.953,266.924 116.743,267.184 116.482 C 267.920 115.746,285.756 115.731,286.944 116.466 C 287.655 116.905,288.000 129.508,288.000 155.059 L 288.000 193.000 292.000 193.000 L 296.000 193.000 296.000 141.465 L 296.000 89.930 306.250 90.215 L 316.500 90.500 316.759 141.750 L 317.018 193.000 321.509 193.000 L 326.000 193.000 326.000 140.347 L 326.000 87.693 329.548 91.347 C 334.688 96.639,337.524 96.324,343.891 89.750 L 348.975 84.500 348.988 138.750 L 349.000 193.000 353.965 193.000 C 359.247 193.000,361.000 191.506,361.000 187.005 C 361.000 185.160,361.495 184.920,364.750 185.190 C 367.966 185.456,368.544 185.877,368.806 188.147 C 368.975 189.603,368.429 192.431,367.592 194.433 C 364.712 201.327,369.923 201.000,262.782 200.996 C 167.975 200.993,166.449 200.962,163.190 198.974 C 156.849 195.108,157.000 196.979,157.000 122.487 L 157.000 54.909 159.541 52.368 C 161.962 49.947,162.469 49.854,170.291 50.392 C 174.806 50.703,189.300 51.216,202.500 51.532 M170.571 60.571 C 168.540 62.603,168.591 63.320,170.917 65.425 C 172.446 66.809,173.255 66.934,174.917 66.045 C 177.255 64.793,177.470 63.746,175.965 60.934 C 174.711 58.592,172.687 58.456,170.571 60.571 M184.040 60.452 C 181.392 63.642,185.299 68.657,188.416 66.070 C 190.297 64.508,190.470 61.870,188.800 60.200 C 187.197 58.597,185.505 58.686,184.040 60.452 M197.200 60.200 C 194.356 63.044,197.138 67.726,200.952 66.515 C 204.328 65.444,203.083 59.000,199.500 59.000 C 198.895 59.000,197.860 59.540,197.200 60.200 M662.000 108.046 L 662.000 150.091 655.250 149.796 C 648.714 149.509,648.490 149.413,648.184 146.750 C 647.832 143.698,645.936 143.168,643.945 145.566 C 642.081 147.812,637.920 149.785,632.472 151.006 C 622.261 153.295,611.181 146.785,607.599 136.393 C 602.993 123.030,605.225 109.415,613.536 100.171 C 619.643 93.379,626.658 90.652,636.500 91.244 C 640.350 91.476,644.155 91.853,644.955 92.083 C 646.740 92.595,646.722 92.727,646.875 78.000 L 647.000 66.000 654.500 66.000 L 662.000 66.000 662.000 108.046 M427.179 68.927 C 440.152 70.600,452.597 78.987,456.879 88.941 C 463.728 104.861,461.196 126.735,451.184 138.138 C 443.047 147.405,426.012 151.871,404.338 150.420 L 394.000 149.727 394.000 109.421 L 394.000 69.115 398.250 68.732 C 406.561 67.984,420.599 68.078,427.179 68.927 M593.365 70.073 C 595.413 71.683,596.000 73.021,596.000 76.073 C 596.000 81.435,593.322 84.000,587.723 84.000 C 580.407 84.000,576.496 79.046,579.014 72.967 C 581.095 67.942,588.705 66.407,593.365 70.073 M726.500 72.168 C 736.233 77.318,740.014 83.644,739.978 94.718 C 739.957 101.328,738.118 107.128,734.805 111.041 C 733.802 112.225,727.119 117.479,725.199 118.594 C 725.034 118.690,729.196 125.563,734.449 133.868 C 739.702 142.173,744.000 149.200,744.000 149.484 C 744.000 149.768,739.756 150.000,734.568 150.000 C 723.590 150.000,725.418 151.532,714.589 133.250 L 707.926 122.000 701.963 122.000 L 696.000 122.000 696.000 136.000 L 696.000 150.000 687.601 150.000 L 679.201 150.000 678.851 145.662 C 678.658 143.276,678.649 124.938,678.832 104.912 L 679.164 68.500 700.332 69.011 C 720.813 69.506,721.662 69.608,726.500 72.168 M776.408 82.500 C 781.262 89.925,785.398 96.000,785.599 96.000 C 785.800 96.000,790.031 89.925,795.000 82.500 L 804.035 69.000 814.133 69.000 L 824.230 69.000 822.450 71.750 C 821.471 73.263,815.425 81.925,809.014 91.000 C 794.409 111.675,795.431 109.745,797.732 112.324 C 798.800 113.521,803.202 119.450,807.515 125.500 C 811.829 131.550,817.537 139.553,820.201 143.284 L 825.043 150.068 814.373 149.784 L 803.702 149.500 794.806 136.500 C 789.913 129.350,785.592 123.690,785.205 123.923 C 784.817 124.156,780.537 130.118,775.694 137.173 L 766.887 150.000 756.829 150.000 L 746.770 150.000 748.538 147.250 C 749.510 145.738,751.515 142.925,752.993 141.000 C 758.218 134.194,774.177 111.701,774.644 110.486 C 774.904 109.807,770.677 103.008,765.250 95.376 C 759.822 87.744,753.479 78.688,751.154 75.250 L 746.925 69.000 757.254 69.000 L 767.582 69.000 776.408 82.500 M410.506 82.123 C 410.209 82.897,410.086 95.449,410.233 110.016 L 410.500 136.500 418.500 136.440 C 428.021 136.368,432.898 134.273,438.333 127.923 C 445.917 119.064,445.971 100.206,438.441 90.334 C 434.788 85.544,426.886 82.042,418.064 81.302 C 412.549 80.840,410.931 81.015,410.506 82.123 M699.750 82.805 L 696.000 83.121 696.000 96.060 L 696.000 109.000 700.250 108.994 C 709.550 108.982,716.357 107.213,719.196 104.072 C 722.974 99.892,723.812 94.554,721.399 90.047 C 718.403 84.452,710.717 81.880,699.750 82.805 M568.123 92.830 C 570.729 93.847,570.738 93.889,569.531 99.177 C 568.201 104.997,568.783 104.745,559.500 103.521 C 552.769 102.634,546.502 105.772,543.564 111.500 C 539.343 119.730,541.789 132.195,548.487 136.583 C 551.636 138.647,559.769 139.434,564.486 138.131 C 566.661 137.531,568.763 137.368,569.158 137.770 C 569.553 138.171,570.183 140.831,570.558 143.679 L 571.239 148.859 566.869 150.095 C 561.121 151.722,549.521 151.717,544.500 150.085 C 534.239 146.750,527.934 139.211,525.904 127.849 C 522.537 109.013,532.625 93.805,550.203 91.217 C 555.781 90.396,563.716 91.110,568.123 92.830 M507.120 93.794 C 514.384 97.589,517.628 102.935,519.196 113.692 C 520.906 125.420,521.609 125.000,500.253 125.000 L 482.750 125.000 483.358 128.039 C 484.182 132.160,486.861 135.623,490.651 137.467 C 494.374 139.278,504.217 139.478,510.595 137.872 C 513.060 137.251,515.303 136.969,515.579 137.245 C 515.855 137.521,516.445 140.055,516.891 142.875 L 517.702 148.003 513.905 149.025 C 500.879 152.533,493.131 152.486,483.328 148.839 C 477.682 146.738,471.744 141.024,469.416 135.452 C 467.036 129.756,466.565 119.245,468.375 112.182 C 472.004 98.017,480.614 91.225,495.136 91.070 C 500.544 91.013,502.761 91.517,507.120 93.794 M595.000 121.500 L 595.000 150.000 587.500 150.000 L 580.000 150.000 580.000 121.500 L 580.000 93.000 587.500 93.000 L 595.000 93.000 595.000 121.500 M488.881 103.503 C 486.076 105.028,483.000 110.466,483.000 113.901 C 483.000 115.899,483.503 116.000,493.441 116.000 C 499.184 116.000,504.154 115.560,504.486 115.023 C 505.624 113.181,502.952 106.107,500.341 104.054 C 497.327 101.683,492.645 101.458,488.881 103.503 M628.272 105.918 C 621.737 110.652,619.119 121.561,622.548 129.768 C 626.136 138.357,631.484 140.568,639.905 136.946 C 642.751 135.721,645.512 133.912,646.040 132.925 C 646.568 131.939,647.000 125.241,647.000 118.041 L 647.000 104.950 644.435 103.975 C 639.220 101.993,632.591 102.789,628.272 105.918 M405.000 175.000 C 406.100 176.100,407.000 177.900,407.000 179.000 C 407.000 181.948,403.439 185.000,400.000 185.000 C 397.333 185.000,397.000 185.333,397.000 188.000 C 397.000 190.000,396.500 191.000,395.500 191.000 C 394.278 191.000,394.000 189.333,394.000 182.000 L 394.000 173.000 398.500 173.000 C 401.667 173.000,403.593 173.593,405.000 175.000 M423.000 175.000 C 425.353 177.353,425.462 178.590,423.630 182.102 C 422.497 184.273,422.492 185.103,423.600 187.102 C 425.387 190.326,425.320 191.000,423.216 191.000 C 422.234 191.000,420.634 189.650,419.659 188.000 C 418.684 186.350,417.237 185.000,416.443 185.000 C 415.506 185.000,415.000 186.052,415.000 188.000 C 415.000 190.000,414.500 191.000,413.500 191.000 C 412.278 191.000,412.000 189.333,412.000 182.000 L 412.000 173.000 416.500 173.000 C 419.667 173.000,421.593 173.593,423.000 175.000 M434.000 182.000 C 434.000 189.333,433.722 191.000,432.500 191.000 C 431.402 191.000,430.952 189.727,430.823 186.250 C 430.725 183.637,430.574 179.588,430.487 177.250 C 430.355 173.735,430.645 173.000,432.164 173.000 C 433.809 173.000,434.000 173.934,434.000 182.000 M453.953 175.449 C 459.316 181.159,455.638 191.000,448.140 191.000 C 442.842 191.000,440.000 187.822,440.000 181.898 C 440.000 177.954,440.449 176.792,442.635 175.073 C 446.260 172.221,451.070 172.382,453.953 175.449 M472.777 174.557 C 475.388 176.385,475.638 179.644,473.413 182.821 C 471.964 184.889,471.964 185.296,473.413 187.508 C 475.428 190.583,475.404 191.000,473.216 191.000 C 472.234 191.000,470.634 189.650,469.659 188.000 C 468.684 186.350,467.237 185.000,466.443 185.000 C 465.506 185.000,465.000 186.052,465.000 188.000 C 465.000 190.000,464.500 191.000,463.500 191.000 C 462.278 191.000,462.000 189.333,462.000 182.000 L 462.000 173.000 466.277 173.000 C 468.630 173.000,471.555 173.701,472.777 174.557 M484.000 182.000 C 484.000 189.333,483.722 191.000,482.500 191.000 C 481.278 191.000,481.000 189.333,481.000 182.000 C 481.000 174.667,481.278 173.000,482.500 173.000 C 483.722 173.000,484.000 174.667,484.000 182.000 M503.756 174.250 C 503.530 174.938,502.143 175.642,500.673 175.816 C 498.044 176.128,498.000 176.255,498.000 183.566 C 498.000 189.507,497.699 191.000,496.500 191.000 C 495.336 191.000,495.000 189.676,495.000 185.082 C 495.000 177.590,494.368 176.000,491.393 176.000 C 489.933 176.000,489.000 175.415,489.000 174.500 C 489.000 173.299,490.509 173.000,496.583 173.000 C 502.202 173.000,504.060 173.324,503.756 174.250 M512.000 182.000 C 512.000 190.333,511.852 191.000,510.000 191.000 C 508.148 191.000,508.000 190.333,508.000 182.000 C 508.000 173.667,508.148 173.000,510.000 173.000 C 511.852 173.000,512.000 173.667,512.000 182.000 M531.000 174.207 C 531.000 174.870,529.200 177.979,527.000 181.116 C 524.800 184.252,523.000 187.057,523.000 187.349 C 523.000 187.640,524.688 188.019,526.750 188.190 C 532.989 188.706,530.956 190.480,523.764 190.795 C 515.995 191.136,515.977 191.063,521.676 182.513 C 523.504 179.771,525.000 177.183,525.000 176.763 C 525.000 176.344,523.425 176.000,521.500 176.000 C 519.056 176.000,518.000 175.548,518.000 174.500 C 518.000 173.321,519.389 173.000,524.500 173.000 C 528.909 173.000,531.000 173.388,531.000 174.207 M547.000 174.500 C 547.000 175.548,545.944 176.000,543.500 176.000 C 540.705 176.000,540.000 176.390,540.000 177.937 C 540.000 179.379,540.809 179.953,543.173 180.187 C 547.757 180.639,548.102 183.000,543.583 183.000 C 540.428 183.000,540.000 183.298,540.000 185.500 C 540.000 187.750,540.400 188.000,544.000 188.000 C 546.889 188.000,548.000 188.417,548.000 189.500 C 548.000 190.667,546.667 191.000,542.000 191.000 L 536.000 191.000 536.000 182.000 L 536.000 173.000 541.500 173.000 C 545.722 173.000,547.000 173.348,547.000 174.500 M581.000 174.500 C 581.000 175.538,579.957 176.000,577.617 176.000 C 575.106 176.000,574.102 176.502,573.724 177.946 C 573.300 179.570,573.805 179.942,576.780 180.196 C 581.646 180.611,582.330 183.000,577.583 183.000 C 574.428 183.000,574.000 183.298,574.000 185.500 C 574.000 187.690,574.433 188.000,577.500 188.000 C 579.944 188.000,581.000 188.452,581.000 189.500 C 581.000 190.652,579.722 191.000,575.500 191.000 L 570.000 191.000 570.000 182.000 L 570.000 173.000 575.500 173.000 C 579.722 173.000,581.000 173.348,581.000 174.500 M591.798 176.150 L 593.793 179.301 595.422 176.150 C 596.461 174.142,597.808 173.000,599.141 173.000 C 601.074 173.000,601.121 173.168,599.768 175.250 C 595.361 182.032,595.428 181.538,598.312 185.895 C 601.526 190.752,601.561 191.000,599.026 191.000 C 597.819 191.000,596.413 189.766,595.411 187.827 L 593.770 184.654 591.907 187.077 C 590.883 188.410,590.034 189.838,590.022 190.250 C 590.010 190.662,589.057 191.000,587.905 191.000 C 585.864 191.000,585.878 190.883,588.490 186.427 L 591.170 181.855 588.585 177.949 C 585.494 173.278,585.456 173.000,587.902 173.000 C 588.948 173.000,590.701 174.418,591.798 176.150 M617.000 174.500 C 617.000 175.548,615.944 176.000,613.500 176.000 C 610.667 176.000,610.000 176.381,610.000 178.000 C 610.000 179.556,610.667 180.000,613.000 180.000 C 615.000 180.000,616.000 180.500,616.000 181.500 C 616.000 182.500,615.000 183.000,613.000 183.000 C 610.467 183.000,610.000 183.389,610.000 185.500 C 610.000 187.690,610.433 188.000,613.500 188.000 C 615.944 188.000,617.000 188.452,617.000 189.500 C 617.000 190.652,615.722 191.000,611.500 191.000 L 606.000 191.000 606.000 182.000 L 606.000 173.000 611.500 173.000 C 615.722 173.000,617.000 173.348,617.000 174.500 M635.000 174.440 C 635.000 175.381,633.704 175.987,631.257 176.190 C 628.315 176.434,627.234 177.088,626.203 179.250 C 624.134 183.586,626.391 187.407,631.257 187.810 C 633.704 188.013,635.000 188.619,635.000 189.560 C 635.000 190.596,633.759 191.000,630.573 191.000 C 625.020 191.000,622.000 187.766,622.000 181.820 C 622.000 176.401,625.453 173.000,630.955 173.000 C 633.808 173.000,635.000 173.424,635.000 174.440 M644.206 180.239 C 644.459 186.475,644.768 187.530,646.434 187.848 C 649.393 188.413,651.000 185.231,651.000 178.809 C 651.000 174.312,651.339 173.000,652.500 173.000 C 653.686 173.000,654.000 174.420,654.000 179.777 C 654.000 188.312,652.388 191.000,647.272 191.000 C 641.437 191.000,640.000 188.895,640.000 180.345 C 640.000 173.721,640.192 173.000,641.956 173.000 C 643.691 173.000,643.946 173.821,644.206 180.239 M673.000 174.500 C 673.000 175.426,672.060 176.000,670.544 176.000 C 668.189 176.000,668.076 176.298,667.794 183.239 C 667.552 189.200,667.191 190.538,665.750 190.813 C 664.208 191.107,664.000 190.247,664.000 183.573 C 664.000 176.162,663.947 176.000,661.500 176.000 C 659.944 176.000,659.000 175.433,659.000 174.500 C 659.000 173.310,660.444 173.000,666.000 173.000 C 671.556 173.000,673.000 173.310,673.000 174.500 M689.000 174.500 C 689.000 175.588,687.881 176.000,684.930 176.000 C 681.298 176.000,680.895 176.238,681.180 178.218 C 681.426 179.919,682.179 180.443,684.417 180.468 C 688.566 180.514,688.897 182.790,684.811 183.182 C 682.258 183.427,681.427 184.015,681.180 185.750 C 680.894 187.767,681.282 188.000,684.930 188.000 C 687.881 188.000,689.000 188.412,689.000 189.500 C 689.000 190.652,687.722 191.000,683.500 191.000 L 678.000 191.000 678.000 182.000 L 678.000 173.000 683.500 173.000 C 687.722 173.000,689.000 173.348,689.000 174.500 M712.087 178.500 C 712.764 181.525,713.625 184.000,714.000 184.000 C 714.375 184.000,715.236 181.525,715.913 178.500 C 716.837 174.370,717.584 173.000,718.913 173.000 C 720.241 173.000,720.988 174.370,721.913 178.500 C 722.590 181.525,723.511 184.000,723.960 184.000 C 724.410 184.000,725.076 182.313,725.442 180.250 C 726.540 174.054,727.051 173.000,728.958 173.000 C 730.654 173.000,730.688 173.331,729.443 177.750 C 728.707 180.363,727.614 184.412,727.014 186.750 C 725.454 192.828,722.690 192.599,720.983 186.250 C 719.138 179.391,718.484 179.259,717.095 185.467 C 716.129 189.784,715.442 191.000,713.971 191.000 C 712.126 191.000,711.819 190.243,707.368 174.750 C 707.009 173.500,707.435 173.000,708.861 173.000 C 710.464 173.000,711.099 174.082,712.087 178.500 M739.000 182.000 C 739.000 189.333,738.722 191.000,737.500 191.000 C 736.278 191.000,736.000 189.333,736.000 182.000 C 736.000 174.667,736.278 173.000,737.500 173.000 C 738.722 173.000,739.000 174.667,739.000 182.000 M752.500 178.752 L 755.500 184.500 755.800 178.750 C 756.057 173.818,756.377 173.000,758.050 173.000 C 759.840 173.000,760.000 173.744,760.000 182.070 C 760.000 190.903,759.941 191.131,757.750 190.820 C 756.204 190.600,754.561 188.778,752.500 185.000 L 749.500 179.500 749.200 185.250 C 748.943 190.182,748.623 191.000,746.950 191.000 C 745.161 191.000,745.000 190.257,745.000 182.000 C 745.000 173.333,745.083 173.000,747.250 173.002 C 748.973 173.004,750.202 174.350,752.500 178.752 M397.000 179.000 C 397.000 181.828,397.268 182.102,399.750 181.816 C 401.932 181.565,402.500 180.984,402.500 179.000 C 402.500 177.016,401.932 176.435,399.750 176.184 C 397.268 175.898,397.000 176.172,397.000 179.000 M415.709 176.624 C 415.319 177.014,415.000 178.413,415.000 179.733 C 415.000 181.761,415.426 182.084,417.750 181.816 C 419.932 181.565,420.500 180.984,420.500 179.000 C 420.500 177.245,419.891 176.413,418.459 176.208 C 417.336 176.047,416.099 176.235,415.709 176.624 M444.655 177.829 C 441.341 181.490,443.513 188.000,448.048 188.000 C 450.834 188.000,453.373 183.620,452.531 180.267 C 451.395 175.742,447.606 174.568,444.655 177.829 M465.000 179.000 C 465.000 181.828,465.268 182.102,467.750 181.816 C 469.932 181.565,470.500 180.984,470.500 179.000 C 470.500 177.016,469.932 176.435,467.750 176.184 C 465.268 175.898,465.000 176.172,465.000 179.000 M556.750 188.749 C 557.341 190.524,553.979 191.584,552.965 189.943 C 552.507 189.202,552.369 188.212,552.659 187.742 C 553.399 186.545,556.250 187.247,556.750 188.749 M697.500 189.000 C 697.500 189.810,696.712 190.624,695.750 190.810 C 694.522 191.046,694.000 190.506,694.000 189.000 C 694.000 187.494,694.522 186.954,695.750 187.190 C 696.712 187.376,697.500 188.190,697.500 189.000 M769.000 189.000 C 769.000 190.111,768.333 191.000,767.500 191.000 C 766.667 191.000,766.000 190.111,766.000 189.000 C 766.000 187.889,766.667 187.000,767.500 187.000 C 768.333 187.000,769.000 187.889,769.000 189.000 " stroke="none" fill="white" fill-rule="oddeven"/></svg>